PathFileType	4	(X/Y/Z)	/Users/niels/Desktop/University/Third Semester/Perception and Action/Exam/Gymnastics Motion Tracking/Code for Gym Tracking/Analyzed Data/Webcam_Backflip/temp_id5_2_trajectory_Sports2D/temp_id5_2_trajectory_Sports2D_px_person00.trc
DataRate	CameraRate	NumFrames	NumMarkers	Units	OrigDataRate	OrigDataStartFrame	OrigNumFrames
29.8125	29.8125	11	22	m	29.8125	0	160
Frame#	Time	Hip			RHip			RKnee			RAnkle			RBigToe			RSmallToe			RHeel			LHip			LKnee			LAnkle			LBigToe			LSmallToe			LHeel			Neck			Head			Nose			RShoulder			RElbow			RWrist			LShoulder			LElbow			LWrist		
		X1	Y1	Z1	X2	Y2	Z2	X3	Y3	Z3	X4	Y4	Z4	X5	Y5	Z5	X6	Y6	Z6	X7	Y7	Z7	X8	Y8	Z8	X9	Y9	Z9	X10	Y10	Z10	X11	Y11	Z11	X12	Y12	Z12	X13	Y13	Z13	X14	Y14	Z14	X15	Y15	Z15	X16	Y16	Z16	X17	Y17	Z17	X18	Y18	Z18	X19	Y19	Z19	X20	Y20	Z20	X21	Y21	Z21	X22	Y22	Z22
0	0.0	0.9616235236604816	-0.55586368942674	0.0	0.9601055159306825	-0.5543479788956694	0.0	0.985775515993919	-0.6616058180737897	0.0	0.9585979623497772	-0.7658421696568194	0.0	0.9933353740616047	-0.7915009623797482	0.0	0.9842858097831292	-0.7945296567459397	0.0	0.9465129823319731	-0.7809611463207679	0.0	0.9616244606085982	-0.5543509003452862	0.0	0.9842685047090775	-0.6601018923844513	0.0	0.9616067604932159	-0.7582752127607786	0.0	0.9933255137215468	-0.7809354850781755	0.0	0.9918173506054596	-0.7809396001213489	0.0	0.9480220905504952	-0.7733933852841209	0.0	0.9918325928419351	-0.4138636231188254	0.0	1.0099735098355838	-0.34287191040356935	0.0	1.0250694565560319	-0.3791265589244889	0.0	0.9948496789491521	-0.4198907741558026	0.0	1.0658084674351065	-0.41684161613726034	0.0	1.1292003972572509	-0.37905234657871134	0.0	0.9797440848593019	-0.4229174055809373	0.0	1.0385971429749974	-0.4289270018360167	0.0	1.0022564198008832	-0.39264293397779965	0.0
1	0.03354297693920335	0.9597674288614625	-0.5595866167887139	0.0	0.9582373679259689	-0.5582343769946244	0.0	0.9903802966159669	-0.6634088278824605	0.0	0.9588948619809975	-0.7664950726779659	0.0	0.995355973381412	-0.7901498964712071	0.0	0.9861908790958942	-0.7933405592559902	0.0	0.9463501848595042	-0.7816119548990151	0.0	0.9600489889449811	-0.5580368646331373	0.0	0.9870538197230416	-0.6621983518207413	0.0	0.961294096549305	-0.7590274629194177	0.0	0.9950966812680875	-0.7816563011391641	0.0	0.9929804070482405	-0.7809005324268545	0.0	0.9475754382524068	-0.7745875575103279	0.0	0.9921368108274069	-0.41864635502318837	0.0	1.0118196851294552	-0.34909794163845537	0.0	1.0257133098593865	-0.3861472014493872	0.0	0.9948226957940008	-0.4254884485810765	0.0	1.0620378653609972	-0.43569549692762044	0.0	1.1294474376573218	-0.41269332835115796	0.0	0.9805774494666445	-0.42777885164844875	0.0	1.0395721033448533	-0.44507453428551	0.0	1.0333827647916705	-0.42219050301983935	0.0
2	0.0670859538784067	0.9583325225278311	-0.5642592051855652	0.0	0.9568942597422937	-0.5629788832700924	0.0	0.9946374363271947	-0.6661140026964633	0.0	0.9591226626467549	-0.7681745371036506	0.0	0.9971920188403491	-0.7898803879521833	0.0	0.9879872268087938	-0.7932630226662878	0.0	0.9462281133925687	-0.7831691069863657	0.0	0.9589417107589051	-0.5626124929961336	0.0	0.9899671895891445	-0.665188402739862	0.0	0.961091035669898	-0.7607509630484391	0.0	0.9967685987359376	-0.7833307173528721	0.0	0.9940193802339079	-0.7817932056071082	0.0	0.9471340832265461	-0.7765000224311492	0.0	0.9922224530191132	-0.4240042440670825	0.0	1.0132264209753794	-0.35579876007682704	0.0	1.026183103197804	-0.39336290068330226	0.0	0.9944029547933797	-0.43176659486382457	0.0	1.0570379349322323	-0.45497695730440063	0.0	1.1273127191057832	-0.4465820767178483	0.0	0.9812842273890333	-0.43347464735588387	0.0	1.0399007422345978	-0.46148314464765333	0.0	1.0596263886594612	-0.4518989258527226	0.0
3	0.10062893081761004	0.957568915995946	-0.5705127428576576	0.0	0.9564213297511884	-0.5691816939280022	0.0	0.9982916692188043	-0.6703973424122	0.0	0.9592383190584107	-0.7716598448713172	0.0	0.9987249746412672	-0.7915581026420038	0.0	0.9895856128836436	-0.7951582176618024	0.0	0.9461407707268622	-0.786370108598811	0.0	0.9585961573675151	-0.5686777264488843	0.0	0.9929981291364739	-0.6697087463543218	0.0	0.9610573998623921	-0.7642087822473514	0.0	0.998399603798976	-0.7866636617808267	0.0	0.9949351052214372	-0.7843393497438883	0.0	0.9467371096239126	-0.779736781580107	0.0	0.9919874821358582	-0.4303134420102897	0.0	1.0139425021331194	-0.3632988921967772	0.0	1.0263633252225268	-0.400926527820208	0.0	0.9934061481027573	-0.4391854784806711	0.0	1.050045766364806	-0.4747916529520656	0.0	1.1209753971537197	-0.4805834130459857	0.0	0.981889013491619	-0.4404960946085608	0.0	1.0391473895938081	-0.4781786736242403	0.0	1.0783839047203252	-0.48160356911798446	0.0
4	0.1341719077568134	0.9574703825780235	-0.5784058993472054	0.0	0.9568916014136238	-0.5769359310214112	0.0	1.0012410194457575	-0.6764846774449287	0.0	0.9592636864074269	-0.7772320358986052	0.0	0.9999001487283656	-0.7956041051050311	0.0	0.9909237437406411	-0.7994092828742055	0.0	0.9460474272384682	-0.7915486554685763	0.0	0.9590297174048564	-0.5762916816167432	0.0	0.9959687395789136	-0.6759378647519464	0.0	0.9612144803509058	-0.7697218202666015	0.0	1.0001678750014567	-0.7919075538775485	0.0	0.9958532385361908	-0.7888314188452981	0.0	0.9464993593553536	-0.7846316819191261	0.0	0.991477370185045	-0.4376373414889501	0.0	1.013931357570771	-0.3716441281159019	0.0	1.026238335015573	-0.4088738891120137	0.0	0.9919565486960931	-0.44787325846079473	0.0	1.0410186722399266	-0.49485343046394287	0.0	1.109713241813907	-0.5139793839251	0.0	0.9825218197592609	-0.44885778387234887	0.0	1.0370853178239952	-0.49497016692716633	0.0	1.088408826802479	-0.5106986120269027	0.0
5	0.16771488469601675	0.9578801199827859	-0.5874427455931931	0.0	0.9581624234223606	-0.5857842798212729	0.0	1.0035473725234734	-0.6841115108279359	0.0	0.9592655044455108	-0.784576744434408	0.0	1.0006455091938835	-0.8018824104515206	0.0	0.9918644608091524	-0.8058105585357446	0.0	0.9459214152229781	-0.7984483046720283	0.0	0.9600054735072314	-0.5849765420101057	0.0	0.9986088286234155	-0.6836023228154169	0.0	0.961549574604121	-0.7770938767217263	0.0	1.002112924020233	-0.7988284944628585	0.0	0.9968502312858706	-0.7950799448158853	0.0	0.9465614069478349	-0.7911385476529784	0.0	0.990814455701273	-0.44575307304039014	0.0	1.013322902523532	-0.3805803429807726	0.0	1.0258785553557657	-0.41711180719092644	0.0	0.9903595059773928	-0.45761752595771893	0.0	1.0304796724876049	-0.5145270386116417	0.0	1.0939290420385124	-0.5455892603788433	0.0	0.9832277604268961	-0.45818740595913354	0.0	1.033553377589061	-0.511546945430931	0.0	1.0895377669913642	-0.5383349865808671	0.0
6	0.20125786163522008	0.9586696181399372	-0.5968289825661316	0.0	0.9599937751452216	-0.5949363684220685	0.0	1.0053454669467354	-0.6926427748970408	0.0	0.9592816244905401	-0.7928820019254673	0.0	1.0008225679479343	-0.8097391987986788	0.0	0.9921265540388241	-0.8136059643138641	0.0	0.9457739907978876	-0.8062524343530044	0.0	0.9611949038248254	-0.5939618697102514	0.0	1.0007048024934404	-0.6920885046648996	0.0	0.9620034022201411	-0.7856781923688857	0.0	1.003955108316071	-0.8067915984697566	0.0	0.9977764793916485	-0.8025119773725844	0.0	0.9469770864769603	-0.7987706153158335	0.0	0.9901220348511088	-0.45420613763942047	0.0	1.0123777711838025	-0.3896269601590386	0.0	1.0254016824565162	-0.42539024383130225	0.0	0.988868345052454	-0.4678719314008256	0.0	1.019225309972302	-0.5328779360032235	0.0	1.0747785875492109	-0.5740565953305622	0.0	0.9838792031867603	-0.46785821263881966	0.0	1.0284718079900148	-0.5274244810903337	0.0	1.0832960318839564	-0.5636216567617731	0.0
7	0.23480083857442344	0.9598269535660985	-0.6057414945960863	0.0	0.9621225421886255	-0.6035927343465715	0.0	1.0067018352136359	-0.701213003489534	0.0	0.959273048679358	-0.8010782990238772	0.0	1.0002881517420386	-0.8181963429310837	0.0	0.991415206732623	-0.8217261279388696	0.0	0.9456682186085571	-0.8138587549251597	0.0	0.9623940660913093	-0.6024801133577934	0.0	1.0021743189476675	-0.7005310764173404	0.0	0.9624822835538182	-0.7944979800662011	0.0	1.005228612297619	-0.8149032639360992	0.0	0.9983226413003414	-0.810284118590533	0.0	0.9476471817225137	-0.806633956107185	0.0	0.9895261465630754	-0.4623600876858816	0.0	1.0114490195950285	-0.39818948179751734	0.0	1.0249650078427983	-0.4332392878901295	0.0	0.9875615187258131	-0.47784015560419796	0.0	1.0080404110047656	-0.5488089634316115	0.0	1.053662115144527	-0.5981043643451176	0.0	0.984276373365471	-0.4771249494835243	0.0	1.0218930690740158	-0.5418998107514325	0.0	1.0718946851623044	-0.5856636291007995	0.0
8	0.2683438155136268	0.9614066128066114	-0.6134477447229365	0.0	0.9642850625108493	-0.6111070423055258	0.0	1.0075900475432609	-0.7088632544426187	0.0	0.9591611403723589	-0.8081287769720849	0.0	0.9990052279687145	-0.8261751064427716	0.0	0.9896563833469663	-0.8290966719769546	0.0	0.9457192499668039	-0.8202332723722687	0.0	0.963591054925169	-0.6099052671226588	0.0	1.0029970376277155	-0.707958029559335	0.0	0.9628766333825061	-0.8024433682528597	0.0	1.0055803521730071	-0.8221961122553254	0.0	0.9982713730360541	-0.8174044757429324	0.0	0.9483486378170988	-0.8136639050584935	0.0	0.9891666812688468	-0.4694836516982498	0.0	1.0108990665717743	-0.40562905763747414	0.0	1.0247387635396936	-0.4400109244042247	0.0	0.9863995303565335	-0.48661671458314076	0.0	0.9974410363592302	-0.5612313058214959	0.0	1.0318684895021486	-0.616653452315136	0.0	0.9843020392990672	-0.4852292583712243	0.0	1.0139851771301396	-0.5541005365011367	0.0	1.0570341821818767	-0.6035294674966867	0.0
9	0.3018867924528301	0.9634289210314214	-0.6192908145329107	0.0	0.9662567786325522	-0.616920506746704	0.0	1.0079776401911436	-0.7146972551668404	0.0	0.9589293601064391	-0.8132455675118492	0.0	0.9971116024543332	-0.8325909025907916	0.0	0.9870986221300453	-0.8347957736882946	0.0	0.9460488246441214	-0.824681976310441	0.0	0.964848205655315	-0.6156925532202114	0.0	1.0031355144670961	-0.7135177318043154	0.0	0.9630918888817307	-0.8085124624268308	0.0	1.0049503983153776	-0.8277810536012141	0.0	0.9976475675933922	-0.8229101861581448	0.0	0.9488616000637423	-0.8189754260775217	0.0	0.9891616335009747	-0.47484839457295624	0.0	1.0109915864613415	-0.4112973258709959	0.0	1.0248574312378274	-0.445034107320344	0.0	0.9853413285414092	-0.49327255579326595	0.0	0.9875609711991512	-0.5691753925734254	0.0	1.0103878925570093	-0.6288186998353413	0.0	0.9840009389320132	-0.49140634473144956	0.0	1.0049594469984673	-0.5630275678823911	0.0	1.0396375507318156	-0.6161980964084507	0.0
10	0.3354297693920335	0.9657943604736297	-0.622688729617915	0.0	0.9678918395689149	-0.6204715625190954	0.0	1.0078752903683337	-0.7180282897394901	0.0	0.9586843105685219	-0.8159575064308444	0.0	0.9949296311724437	-0.8364242654196362	0.0	0.9842763894099034	-0.8380724290487478	0.0	0.9467119670523477	-0.8269328344508263	0.0	0.9661751637816912	-0.6192973030212289	0.0	1.0025713392522788	-0.7166430844056252	0.0	0.963082441149623	-0.8119478786325129	0.0	1.003542723363462	-0.8309154218844529	0.0	0.9966533169339264	-0.8260261159564484	0.0	0.9490992235740847	-0.8220307815358965	0.0	0.9895589532571207	-0.47783781082923166	0.0	1.0118590938266347	-0.41462478423043725	0.0	1.0254020172031288	-0.44778771168862525	0.0	0.9844135835145765	-0.49695889202721394	0.0	0.9782960785789161	-0.5719328412194635	0.0	0.9897893076717371	-0.6339445189543159	0.0	0.9835572686892349	-0.4949146894910025	0.0	0.9950521124794907	-0.5676698986513768	0.0	1.020058413784124	-0.6226333835096984	0.0
